<svg width="470" height="470" viewBox="0 0 470 470" fill="none" xmlns="http://www.w3.org/2000/svg">
<path d="M462.5 22.5H7.5C3.358 22.5 0 25.857 0 30V440C0 444.143 3.358 447.5 7.5 447.5H462.5C466.642 447.5 470 444.143 470 440V360C470 355.857 466.642 352.5 462.5 352.5C458.358 352.5 455 355.857 455 360V432.5H15V97.5H455V330C455 334.143 458.358 337.5 462.5 337.5C466.642 337.5 470 334.143 470 330V30C470 25.857 466.642 22.5 462.5 22.5ZM15 37.5H292.5V82.5H15V37.5ZM307.5 82.5V37.5H455V82.5H307.5Z" fill="#56CCF2"/>
<path d="M381.5 52C377.089 52 373.5 55.589 373.5 60C373.5 64.411 377.089 68 381.5 68C385.911 68 389.5 64.411 389.5 60C389.5 55.589 385.911 52 381.5 52Z" fill="#56CCF2"/>
<path d="M340.5 52C336.089 52 332.5 55.589 332.5 60C332.5 64.411 336.089 68 340.5 68C344.911 68 348.5 64.411 348.5 60C348.5 55.589 344.911 52 340.5 52Z" fill="#56CCF2"/>
<path d="M422.5 52C418.089 52 414.5 55.589 414.5 60C414.5 64.411 418.089 68 422.5 68C426.911 68 430.5 64.411 430.5 60C430.5 55.589 426.911 52 422.5 52Z" fill="#56CCF2"/>
<path d="M148.714 225.989C151.663 225.62 154.116 223.546 154.968 220.699L172.221 163.105C173.409 159.137 171.157 154.957 167.189 153.768C163.223 152.58 159.041 154.832 157.852 158.8L145.478 200.106L133.55 180.198C132.195 177.936 129.753 176.552 127.116 176.552C124.479 176.552 122.037 177.936 120.682 180.198L108.754 200.106L96.382 158.808C95.194 154.84 91.013 152.587 87.045 153.776C83.077 154.964 80.824 159.145 82.013 163.113L99.264 220.699C100.117 223.546 102.57 225.62 105.518 225.989C105.83 226.028 106.141 226.047 106.45 226.047C109.062 226.047 111.516 224.681 112.882 222.401L127.115 198.645L141.348 222.401C142.878 224.95 145.768 226.36 148.714 225.989Z" fill="#56CCF2"/>
<path d="M206.358 225.982C206.67 226.021 206.981 226.04 207.29 226.04C209.902 226.04 212.356 224.674 213.722 222.394L227.955 198.638L242.188 222.394C243.715 224.943 246.604 226.351 249.552 225.982C252.501 225.613 254.954 223.539 255.806 220.692L273.059 163.098C274.247 159.13 271.995 154.95 268.027 153.761C264.059 152.572 259.879 154.824 258.69 158.793L246.316 200.1L234.388 180.192C233.033 177.93 230.591 176.546 227.954 176.546C225.317 176.546 222.875 177.93 221.52 180.192L209.594 200.1L197.222 158.801C196.034 154.833 191.855 152.579 187.885 153.769C183.917 154.957 181.664 159.138 182.853 163.106L200.104 220.693C200.957 223.539 203.41 225.613 206.358 225.982Z" fill="#56CCF2"/>
<path d="M368.865 153.755C364.898 152.567 360.717 154.819 359.528 158.787L347.154 200.092L335.226 180.184C333.871 177.922 331.429 176.538 328.792 176.538C326.155 176.538 323.713 177.922 322.358 180.184L310.43 200.092L298.058 158.794C296.869 154.827 292.691 152.574 288.721 153.762C284.753 154.95 282.5 159.131 283.689 163.099L300.94 220.685C301.793 223.532 304.246 225.606 307.194 225.975C310.143 226.344 313.03 224.937 314.558 222.387L328.791 198.631L343.024 222.387C344.39 224.666 346.843 226.033 349.456 226.033C349.765 226.033 350.077 226.014 350.388 225.975C353.337 225.606 355.79 223.532 356.642 220.685L373.895 163.092C375.085 159.124 372.833 154.943 368.865 153.755Z" fill="#56CCF2"/>
<path d="M136.7 268.547C136.7 264.404 133.342 261.047 129.2 261.047H89.2C85.058 261.047 81.7 264.404 81.7 268.547V308.547C81.7 312.69 85.058 316.047 89.2 316.047H129.2C133.342 316.047 136.7 312.69 136.7 308.547V268.547ZM121.7 301.047H96.7V276.047H121.7V301.047Z" fill="#56CCF2"/>
<path d="M129.2 331.047H89.2C85.058 331.047 81.7 334.404 81.7 338.547V378.547C81.7 382.69 85.058 386.047 89.2 386.047H129.2C133.342 386.047 136.7 382.69 136.7 378.547V338.547C136.7 334.404 133.342 331.047 129.2 331.047ZM121.7 371.047H96.7V346.047H121.7V371.047Z" fill="#56CCF2"/>
<path d="M366.712 281.047H336.712C332.57 281.047 329.212 284.404 329.212 288.547C329.212 292.69 332.57 296.047 336.712 296.047H366.712C370.854 296.047 374.212 292.69 374.212 288.547C374.212 284.404 370.854 281.047 366.712 281.047Z" fill="#56CCF2"/>
<path d="M306.712 281.047H159.2C155.058 281.047 151.7 284.404 151.7 288.547C151.7 292.69 155.058 296.047 159.2 296.047H306.713C310.855 296.047 314.213 292.69 314.213 288.547C314.213 284.404 310.854 281.047 306.712 281.047Z" fill="#56CCF2"/>
<path d="M366.712 351.047H336.712C332.57 351.047 329.212 354.404 329.212 358.547C329.212 362.69 332.57 366.047 336.712 366.047H366.712C370.854 366.047 374.212 362.69 374.212 358.547C374.212 354.404 370.854 351.047 366.712 351.047Z" fill="#56CCF2"/>
<path d="M306.712 351.047H159.2C155.058 351.047 151.7 354.404 151.7 358.547C151.7 362.69 155.058 366.047 159.2 366.047H306.713C310.855 366.047 314.213 362.69 314.213 358.547C314.213 354.404 310.854 351.047 306.712 351.047Z" fill="#56CCF2"/>
</svg>
