<svg width="512" height="512" viewBox="0 0 512 512" fill="none" xmlns="http://www.w3.org/2000/svg">
<g clip-path="url(#clip0)">
<path d="M384.125 15.995H384.039C381.837 15.995 380.088 17.784 380.088 19.994C380.088 22.204 381.915 23.993 384.125 23.993C386.328 23.993 388.124 22.204 388.124 19.994C388.124 17.784 386.328 15.995 384.125 15.995Z" fill="#56CCF2"/>
<path d="M368.13 15.995H368.044C365.842 15.995 364.092 17.784 364.092 19.994C364.092 22.204 365.92 23.993 368.13 23.993C370.333 23.993 372.129 22.204 372.129 19.994C372.129 17.784 370.333 15.995 368.13 15.995Z" fill="#56CCF2"/>
<path d="M352.135 15.995H352.049C349.847 15.995 348.098 17.784 348.098 19.994C348.098 22.204 349.925 23.993 352.135 23.993C354.338 23.993 356.134 22.204 356.134 19.994C356.134 17.784 354.338 15.995 352.135 15.995Z" fill="#56CCF2"/>
<path d="M103.968 0C101.758 0 99.969 1.789 99.969 3.999V115.965C99.969 118.175 101.758 119.964 103.968 119.964C106.178 119.964 107.967 118.175 107.967 115.965V3.999C107.968 1.789 106.179 0 103.968 0Z" fill="#56CCF2"/>
<path d="M407.876 0H103.968C101.758 0 99.969 1.789 99.969 3.999C99.969 6.209 101.758 7.998 103.968 7.998H407.875C410.085 7.998 411.874 6.209 411.874 3.999C411.875 1.789 410.086 0 407.876 0Z" fill="#56CCF2"/>
<path d="M407.876 0C405.666 0 403.877 1.789 403.877 3.999V115.965C403.877 118.175 405.666 119.964 407.876 119.964C410.086 119.964 411.875 118.175 411.875 115.965V3.999C411.875 1.789 410.086 0 407.876 0Z" fill="#56CCF2"/>
<path d="M407.876 391.88C405.666 391.88 403.877 393.669 403.877 395.879V507.845C403.877 510.055 405.666 511.844 407.876 511.844C410.086 511.844 411.875 510.055 411.875 507.845V395.879C411.875 393.669 410.086 391.88 407.876 391.88Z" fill="#56CCF2"/>
<path d="M407.876 503.846H103.968C101.758 503.846 99.969 505.635 99.969 507.845C99.969 510.055 101.758 511.844 103.968 511.844H407.875C410.085 511.844 411.874 510.055 411.874 507.845C411.875 505.635 410.086 503.846 407.876 503.846Z" fill="#56CCF2"/>
<path d="M103.968 391.88C101.758 391.88 99.969 393.669 99.969 395.879V507.845C99.969 510.055 101.758 511.844 103.968 511.844C106.178 511.844 107.967 510.055 107.967 507.845V395.879C107.968 393.669 106.179 391.88 103.968 391.88Z" fill="#56CCF2"/>
<path d="M256.16 135.959H256.082C253.872 135.959 252.123 137.747 252.123 139.957C252.123 142.168 253.954 143.956 256.16 143.956C258.371 143.956 260.163 142.168 260.163 139.957C260.163 137.747 258.371 135.959 256.16 135.959Z" fill="#56CCF2"/>
<path d="M415.872 127.961H95.971C89.356 127.961 83.974 133.342 83.974 139.957V355.892C83.974 358.102 85.763 359.891 87.973 359.891H423.87C426.08 359.891 427.868 358.102 427.868 355.892V139.957C427.869 133.342 422.487 127.961 415.872 127.961ZM419.872 351.893H91.973V139.957C91.973 137.755 93.765 135.959 95.972 135.959H415.873C418.076 135.959 419.872 137.755 419.872 139.957V351.893Z" fill="#56CCF2"/>
<path d="M455.862 351.893H55.984C53.774 351.893 51.985 353.681 51.985 355.892V371.887C51.985 378.502 57.367 383.883 63.982 383.883H447.863C454.479 383.883 459.86 378.502 459.86 371.887V355.892C459.859 353.681 458.072 351.893 455.862 351.893ZM451.862 371.887C451.862 374.089 450.066 375.885 447.863 375.885H63.981C61.774 375.885 59.982 374.089 59.982 371.887V359.891H451.862V371.887V371.887Z" fill="#56CCF2"/>
<path d="M407.876 143.956H103.968C101.758 143.956 99.969 145.745 99.969 147.955V339.897C99.969 342.107 101.758 343.895 103.968 343.895H407.875C410.085 343.895 411.874 342.107 411.874 339.896V147.955C411.875 145.745 410.086 143.956 407.876 143.956ZM403.877 335.898H107.968V151.954H403.877V335.898Z" fill="#56CCF2"/>
<path d="M291.911 359.891H219.933C217.722 359.891 215.934 361.679 215.934 363.889C215.934 366.1 217.722 367.888 219.933 367.888H291.911C294.121 367.888 295.91 366.1 295.91 363.889C295.91 361.679 294.121 359.891 291.911 359.891Z" fill="#56CCF2"/>
<path d="M383.883 199.94C377.268 199.94 371.887 205.321 371.887 211.936C371.887 218.551 377.268 223.932 383.883 223.932C390.498 223.932 395.879 218.551 395.879 211.936C395.879 205.321 390.497 199.94 383.883 199.94ZM383.883 215.934C381.681 215.934 379.885 214.138 379.885 211.936C379.885 209.733 381.681 207.937 383.883 207.937C386.086 207.937 387.882 209.733 387.882 211.936C387.882 214.138 386.086 215.934 383.883 215.934Z" fill="#56CCF2"/>
<path d="M383.883 187.943C381.673 187.943 379.885 189.732 379.885 191.942V203.938C379.885 206.149 381.673 207.937 383.883 207.937C386.094 207.937 387.882 206.149 387.882 203.938V191.942C387.882 189.732 386.094 187.943 383.883 187.943Z" fill="#56CCF2"/>
<path d="M383.883 279.914C381.673 279.914 379.885 281.703 379.885 283.913V295.91C379.885 298.12 381.673 299.908 383.883 299.908C386.094 299.908 387.882 298.12 387.882 295.91V283.913C387.882 281.703 386.094 279.914 383.883 279.914Z" fill="#56CCF2"/>
<path d="M383.883 231.929C377.268 231.929 371.887 237.311 371.887 243.926C371.887 250.541 377.268 255.922 383.883 255.922C390.498 255.922 395.879 250.541 395.879 243.926C395.879 237.311 390.497 231.929 383.883 231.929ZM383.883 247.924C381.681 247.924 379.885 246.128 379.885 243.926C379.885 241.723 381.681 239.927 383.883 239.927C386.086 239.927 387.882 241.723 387.882 243.926C387.882 246.128 386.086 247.924 383.883 247.924Z" fill="#56CCF2"/>
<path d="M383.883 215.934C381.673 215.934 379.885 217.723 379.885 219.933V235.928C379.885 238.139 381.673 239.927 383.883 239.927C386.094 239.927 387.882 238.139 387.882 235.928V219.933C387.882 217.723 386.094 215.934 383.883 215.934Z" fill="#56CCF2"/>
<path d="M383.883 263.92C377.268 263.92 371.887 269.301 371.887 275.916C371.887 282.531 377.268 287.912 383.883 287.912C390.498 287.912 395.879 282.531 395.879 275.916C395.879 269.301 390.497 263.92 383.883 263.92ZM383.883 279.914C381.681 279.914 379.885 278.118 379.885 275.916C379.885 273.713 381.681 271.917 383.883 271.917C386.086 271.917 387.882 273.713 387.882 275.916C387.882 278.118 386.086 279.914 383.883 279.914Z" fill="#56CCF2"/>
<path d="M383.883 247.924C381.673 247.924 379.885 249.713 379.885 251.923V267.918C379.885 270.129 381.673 271.917 383.883 271.917C386.094 271.917 387.882 270.129 387.882 267.918V251.923C387.882 249.713 386.094 247.924 383.883 247.924Z" fill="#56CCF2"/>
<path d="M371.372 337.935L299.394 209.974C298.706 208.741 297.418 207.967 296.004 207.936C294.536 207.96 293.271 208.616 292.521 209.818L212.545 337.779C211.374 339.646 211.944 342.114 213.815 343.285C215.689 344.465 218.153 343.895 219.325 342.013L295.731 219.769L364.405 341.857C365.139 343.162 366.491 343.895 367.889 343.895C368.552 343.895 369.232 343.731 369.85 343.378C371.77 342.301 372.458 339.857 371.372 337.935Z" fill="#56CCF2"/>
<path d="M244.944 297.105L223.435 257.993C222.76 256.767 221.482 255.978 220.081 255.923C218.604 255.931 217.348 256.563 216.578 257.743L164.594 337.718C163.391 339.569 163.918 342.045 165.77 343.248C166.442 343.684 167.199 343.895 167.945 343.895C169.254 343.895 170.534 343.255 171.302 342.076L219.647 267.7L237.938 300.964C239.005 302.893 241.437 303.604 243.366 302.542C245.303 301.471 246.01 299.042 244.944 297.105Z" fill="#56CCF2"/>
<path d="M215.935 167.949H127.962C125.751 167.949 123.963 169.737 123.963 171.947C123.963 174.158 125.751 175.946 127.962 175.946H215.935C218.145 175.946 219.934 174.158 219.934 171.947C219.934 169.737 218.145 167.949 215.935 167.949Z" fill="#56CCF2"/>
<path d="M215.935 183.945H127.962C125.751 183.945 123.963 185.733 123.963 187.943C123.963 190.154 125.751 191.942 127.962 191.942H215.935C218.145 191.942 219.934 190.153 219.934 187.943C219.934 185.733 218.145 183.945 215.935 183.945Z" fill="#56CCF2"/>
<path d="M167.948 199.94H127.961C125.75 199.94 123.962 201.728 123.962 203.938C123.962 206.149 125.75 207.937 127.961 207.937H167.948C170.158 207.937 171.947 206.149 171.947 203.938C171.948 201.728 170.159 199.94 167.948 199.94Z" fill="#56CCF2"/>
<path d="M139.958 223.932C131.137 223.932 123.963 231.11 123.963 239.927C123.963 248.744 131.137 255.922 139.958 255.922C148.779 255.922 155.953 248.744 155.953 239.927C155.953 231.11 148.779 223.932 139.958 223.932ZM139.958 247.924C135.549 247.924 131.96 244.34 131.96 239.927C131.96 235.514 135.549 231.929 139.958 231.929C144.366 231.929 147.955 235.514 147.955 239.927C147.955 244.34 144.366 247.924 139.958 247.924Z" fill="#56CCF2"/>
<path d="M159.944 415.872C150.829 415.872 143.957 423.167 143.957 432.843C143.957 442.638 152.962 451.861 159.944 451.861C166.93 451.861 175.947 442.639 175.947 432.843C175.947 423.167 169.065 415.872 159.944 415.872ZM159.944 443.865C157.987 443.865 151.954 438.905 151.954 432.844C151.954 427.557 155.238 423.87 159.944 423.87C164.657 423.87 167.949 427.557 167.949 432.844C167.949 438.905 161.904 443.865 159.944 443.865Z" fill="#56CCF2"/>
<path d="M183.604 452.635C178.762 451.611 172.862 450.081 170.971 449.245C170.237 448.394 169.156 447.863 167.949 447.863C165.739 447.863 163.95 449.651 163.95 451.861C163.95 454.932 164.786 456.845 181.957 460.461C182.234 460.516 182.511 460.547 182.784 460.547C184.636 460.547 186.295 459.258 186.693 457.376C187.15 455.213 185.763 453.088 183.604 452.635Z" fill="#56CCF2"/>
<path d="M167.948 438.935C165.738 438.935 163.949 440.724 163.949 442.934V451.861C163.949 454.072 165.738 455.86 167.948 455.86C170.158 455.86 171.947 454.072 171.947 451.861V442.934C171.948 440.724 170.159 438.935 167.948 438.935Z" fill="#56CCF2"/>
<path d="M151.954 447.863C150.747 447.863 149.666 448.394 148.932 449.245C147.042 450.081 141.141 451.612 136.299 452.635C134.14 453.088 132.753 455.213 133.21 457.376C133.608 459.258 135.267 460.547 137.119 460.547C137.393 460.547 137.67 460.516 137.946 460.461C155.117 456.844 155.953 454.931 155.953 451.861C155.953 449.651 154.164 447.863 151.954 447.863Z" fill="#56CCF2"/>
<path d="M151.953 438.935C149.743 438.935 147.954 440.724 147.954 442.934V451.861C147.954 454.072 149.743 455.86 151.953 455.86C154.163 455.86 155.952 454.072 155.952 451.861V442.934C155.953 440.724 154.164 438.935 151.953 438.935Z" fill="#56CCF2"/>
<path d="M159.952 399.879C140.107 399.879 123.963 416.022 123.963 435.868C123.963 455.712 140.106 471.856 159.952 471.856C179.797 471.856 195.941 455.712 195.94 435.868C195.94 416.023 179.797 399.879 159.952 399.879ZM159.952 463.858C144.519 463.858 131.96 451.3 131.96 435.867C131.96 420.434 144.518 407.875 159.952 407.875C175.385 407.875 187.943 420.434 187.943 435.867C187.943 451.299 175.385 463.858 159.952 463.858Z" fill="#56CCF2"/>
<path d="M255.922 415.872C246.804 415.872 239.927 423.167 239.927 432.843C239.927 442.638 248.941 451.861 255.922 451.861C262.904 451.861 271.918 442.639 271.918 432.843C271.918 423.167 265.044 415.872 255.922 415.872ZM255.922 443.865C253.962 443.865 247.925 438.905 247.925 432.844C247.925 427.557 251.213 423.87 255.922 423.87C260.632 423.87 263.92 427.557 263.92 432.844C263.919 438.905 257.883 443.865 255.922 443.865Z" fill="#56CCF2"/>
<path d="M279.586 452.635C274.736 451.611 268.831 450.081 266.941 449.245C266.207 448.394 265.122 447.863 263.919 447.863C261.709 447.863 259.92 449.651 259.92 451.861C259.92 454.932 260.756 456.845 277.939 460.461C278.212 460.524 278.494 460.547 278.767 460.547C280.609 460.547 282.273 459.258 282.671 457.376C283.125 455.213 281.742 453.088 279.586 452.635Z" fill="#56CCF2"/>
<path d="M263.919 438.935C261.709 438.935 259.92 440.724 259.92 442.934V451.861C259.92 454.072 261.709 455.86 263.919 455.86C266.129 455.86 267.918 454.072 267.918 451.861V442.934C267.919 440.724 266.13 438.935 263.919 438.935Z" fill="#56CCF2"/>
<path d="M247.924 447.863C246.717 447.863 245.636 448.394 244.902 449.245C243.011 450.081 237.115 451.612 232.277 452.635C230.114 453.088 228.731 455.213 229.188 457.376C229.586 459.258 231.245 460.547 233.097 460.547C233.37 460.547 233.647 460.516 233.924 460.461C251.087 456.844 251.923 454.931 251.923 451.861C251.924 449.651 250.135 447.863 247.924 447.863Z" fill="#56CCF2"/>
<path d="M247.924 438.935C245.714 438.935 243.925 440.724 243.925 442.934V451.861C243.925 454.072 245.714 455.86 247.924 455.86C250.134 455.86 251.923 454.072 251.923 451.861V442.934C251.924 440.724 250.135 438.935 247.924 438.935Z" fill="#56CCF2"/>
<path d="M255.922 399.879C236.078 399.879 219.934 416.022 219.934 435.868C219.934 455.712 236.077 471.856 255.922 471.856C275.768 471.856 291.911 455.712 291.911 435.868C291.911 416.023 275.768 399.879 255.922 399.879ZM255.922 463.858C240.49 463.858 227.931 451.3 227.931 435.867C227.931 420.434 240.489 407.875 255.922 407.875C271.356 407.875 283.914 420.434 283.914 435.867C283.914 451.299 271.356 463.858 255.922 463.858Z" fill="#56CCF2"/>
<path d="M351.893 415.872C342.771 415.872 335.899 423.167 335.899 432.843C335.899 442.638 344.911 451.861 351.893 451.861C358.875 451.861 367.889 442.639 367.889 432.843C367.889 423.167 361.016 415.872 351.893 415.872ZM351.893 443.865C349.933 443.865 343.896 438.905 343.896 432.844C343.896 427.557 347.184 423.87 351.893 423.87C356.603 423.87 359.891 427.557 359.891 432.844C359.891 438.905 353.854 443.865 351.893 443.865Z" fill="#56CCF2"/>
<path d="M375.557 452.635C370.706 451.611 364.802 450.081 362.912 449.245C362.178 448.394 361.093 447.863 359.89 447.863C357.679 447.863 355.891 449.651 355.891 451.861C355.891 454.932 356.727 456.845 373.91 460.461C374.183 460.524 374.464 460.547 374.737 460.547C376.581 460.547 378.244 459.258 378.642 457.376C379.094 455.213 377.711 453.088 375.557 452.635Z" fill="#56CCF2"/>
<path d="M359.891 438.935C357.68 438.935 355.892 440.724 355.892 442.934V451.861C355.892 454.072 357.68 455.86 359.891 455.86C362.101 455.86 363.89 454.072 363.89 451.861V442.934C363.89 440.724 362.101 438.935 359.891 438.935Z" fill="#56CCF2"/>
<path d="M343.896 447.863C342.686 447.863 341.608 448.394 340.874 449.245C338.983 450.081 333.087 451.612 328.245 452.635C326.089 453.088 324.707 455.213 325.16 457.376C325.558 459.258 327.221 460.547 329.065 460.547C329.338 460.547 329.619 460.516 329.9 460.461C347.059 456.844 347.895 454.931 347.895 451.861C347.895 449.651 346.106 447.863 343.896 447.863Z" fill="#56CCF2"/>
<path d="M343.896 438.935C341.686 438.935 339.897 440.724 339.897 442.934V451.861C339.897 454.072 341.686 455.86 343.896 455.86C346.106 455.86 347.895 454.072 347.895 451.861V442.934C347.895 440.724 346.106 438.935 343.896 438.935Z" fill="#56CCF2"/>
<path d="M351.893 399.879C332.057 399.879 315.913 416.022 315.913 435.868C315.913 455.712 332.056 471.856 351.893 471.856C371.738 471.856 387.882 455.712 387.882 435.868C387.882 416.023 371.739 399.879 351.893 399.879ZM351.893 463.858C336.461 463.858 323.91 451.3 323.91 435.867C323.91 420.434 336.46 407.875 351.893 407.875C367.326 407.875 379.885 420.434 379.885 435.867C379.885 451.299 367.327 463.858 351.893 463.858Z" fill="#56CCF2"/>
<path d="M407.876 31.99H103.968C101.758 31.99 99.969 33.779 99.969 35.989C99.969 38.199 101.758 39.988 103.968 39.988H407.875C410.085 39.988 411.874 38.199 411.874 35.989C411.875 33.779 410.086 31.99 407.876 31.99Z" fill="#56CCF2"/>
<path d="M255.922 7.99799C249.308 7.99799 243.926 13.379 243.926 19.994C243.926 26.609 249.308 31.99 255.922 31.99C262.537 31.99 267.919 26.609 267.919 19.994C267.919 13.379 262.536 7.99799 255.922 7.99799ZM255.922 23.993C253.716 23.993 251.924 22.196 251.924 19.994C251.924 17.792 253.716 15.995 255.922 15.995C258.129 15.995 259.921 17.792 259.921 19.994C259.921 22.196 258.129 23.993 255.922 23.993Z" fill="#56CCF2"/>
<path d="M151.953 15.995H127.961C125.75 15.995 123.962 17.784 123.962 19.994C123.962 22.204 125.75 23.993 127.961 23.993H151.953C154.163 23.993 155.952 22.204 155.952 19.994C155.953 17.784 154.164 15.995 151.953 15.995Z" fill="#56CCF2"/>
<path d="M191.943 15.995H167.95C165.74 15.995 163.951 17.784 163.951 19.994C163.951 22.204 165.74 23.993 167.95 23.993H191.943C194.152 23.993 195.941 22.204 195.941 19.994C195.94 17.784 194.153 15.995 191.943 15.995Z" fill="#56CCF2"/>
<path d="M367.889 63.981H143.957C141.746 63.981 139.958 65.77 139.958 67.98C139.958 70.19 141.746 71.979 143.957 71.979H367.889C370.099 71.979 371.887 70.19 371.887 67.98C371.887 65.77 370.099 63.981 367.889 63.981Z" fill="#56CCF2"/>
<path d="M335.898 79.976H175.947C173.736 79.976 171.948 81.765 171.948 83.975C171.948 86.185 173.736 87.974 175.947 87.974H335.899C338.109 87.974 339.896 86.185 339.896 83.975C339.896 81.765 338.108 79.976 335.898 79.976Z" fill="#56CCF2"/>
<path d="M295.91 95.971H215.934C213.724 95.971 211.935 97.76 211.935 99.97C211.935 102.18 213.724 103.969 215.934 103.969H295.91C298.12 103.969 299.909 102.18 299.909 99.97C299.909 97.76 298.12 95.971 295.91 95.971Z" fill="#56CCF2"/>
<path d="M175.947 479.854H143.957C141.746 479.854 139.958 481.642 139.958 483.852C139.958 486.063 141.746 487.851 143.957 487.851H175.947C178.157 487.851 179.945 486.063 179.945 483.852C179.945 481.642 178.156 479.854 175.947 479.854Z" fill="#56CCF2"/>
<path d="M271.918 479.854H239.927C237.717 479.854 235.929 481.642 235.929 483.852C235.929 486.063 237.717 487.851 239.927 487.851H271.918C274.128 487.851 275.916 486.063 275.916 483.852C275.916 481.642 274.128 479.854 271.918 479.854Z" fill="#56CCF2"/>
<path d="M367.889 479.854H335.899C333.688 479.854 331.9 481.642 331.9 483.852C331.9 486.063 333.688 487.851 335.899 487.851H367.889C370.099 487.851 371.887 486.063 371.887 483.852C371.887 481.642 370.099 479.854 367.889 479.854Z" fill="#56CCF2"/>
</g>
<defs>
<clipPath id="clip0">
<rect width="511.844" height="511.844" fill="white"/>
</clipPath>
</defs>
</svg>
