<svg width="480" height="480" viewBox="0 0 480 480" fill="none" xmlns="http://www.w3.org/2000/svg">
<g clip-path="url(#clip0)">
<path d="M369 368H353V400H209V416H353V440C353 453.254 342.254 464 329 464H153C144.426 463.988 136.504 459.418 132.199 452L118.344 460C125.516 472.355 138.715 479.973 153 480H329C351.082 479.973 368.973 462.082 369 440V368Z" fill="#56CCF2"/>
<path d="M233 432H249V448H233V432Z" fill="#56CCF2"/>
<path d="M281 216V200H256.594C252.605 148.949 212.051 108.395 161 104.406V80H145V104.406C139.609 104.82 134.262 105.656 129 106.902V64H257V48H129V40C129 26.7461 139.746 16 153 16H329C334.844 16 340.488 18.1328 344.871 22L355.457 10C348.152 3.55078 338.742 -0.00390303 329 3.21601e-06H153C130.918 0.027347 113.027 17.918 113 40V112C76.9766 127.09 52.4258 161.062 49.4062 200H25V216H49.4258C53.1992 267.148 93.8516 307.828 145 311.633V336H161V311.633C212.148 307.828 252.801 267.148 256.574 216H281ZM145 280V295.633C133.84 294.629 122.98 291.492 113 286.398V272C113 249.91 130.91 232 153 232C175.09 232 193 249.91 193 272V286.398C183.023 291.5 172.16 294.641 161 295.656V280H145ZM129 192C129 178.746 139.746 168 153 168C166.254 168 177 178.746 177 192C177 205.254 166.254 216 153 216C139.746 216 129 205.254 129 192ZM211.664 273.602C210.801 274.398 209.879 275.039 209 275.777V272C208.98 251.102 197.324 231.953 178.77 222.336C191.621 211.512 196.336 193.809 190.574 178.027C184.812 162.242 169.801 151.742 153 151.742C136.199 151.742 121.188 162.242 115.426 178.027C109.664 193.809 114.379 211.512 127.23 222.336C108.676 231.953 97.0195 251.102 97 272V275.816C96.1133 275.09 95.1914 274.406 94.3359 273.641C77.7578 258.773 67.4258 238.18 65.4258 216H81V200H65.4062C69.3164 157.766 102.766 124.316 145 120.406V136H161V120.406C203.234 124.316 236.684 157.766 240.594 200H225V216H240.574C238.574 238.18 228.242 258.773 211.664 273.641V273.602Z" fill="#56CCF2"/>
<path d="M457 144C461.418 144 465 140.418 465 136V40C465 35.582 461.418 32 457 32H281C276.582 32 273 35.582 273 40V136C273 140.418 276.582 144 281 144H457ZM289 48H449V128H289V48Z" fill="#56CCF2"/>
<path d="M305 64H337V80H305V64Z" fill="#56CCF2"/>
<path d="M353 64H433V80H353V64Z" fill="#56CCF2"/>
<path d="M305 96H433V112H305V96Z" fill="#56CCF2"/>
<path d="M455.586 160C449.391 160.012 443.414 162.285 438.785 166.398L369 227.922V160H353V240H355.312L309.801 280.16C280.191 281.855 257.035 306.34 257 336V350.113C257.031 358.051 252.543 365.32 245.426 368.84C242.102 370.496 240.355 374.223 241.207 377.836C242.059 381.449 245.285 384.004 249 384H305C334.66 383.965 359.145 360.809 360.84 331.199L474.648 202.223C481.254 194.73 482.859 184.062 478.746 174.957C474.637 165.852 465.574 160 455.586 160V160ZM305 368H268.414C271.434 362.523 273.012 356.367 273 350.113V336C273.027 315.16 289.027 297.82 309.801 296.129L344.871 331.199C343.184 351.973 325.84 367.977 305 368ZM462.648 191.641L352.641 316.32L324.68 288.367L449.359 178.352C453.09 175.078 458.719 175.262 462.23 178.77C465.738 182.281 465.922 187.91 462.648 191.641Z" fill="#56CCF2"/>
<path d="M9 440H185C189.418 440 193 436.418 193 432V368C193 363.582 189.418 360 185 360H129V320H113V360H9C4.58203 360 1 363.582 1 368V432C1 436.418 4.58203 440 9 440ZM17 376H177V424H17V376Z" fill="#56CCF2"/>
<path d="M33 392H73V408H33V392Z" fill="#56CCF2"/>
<path d="M89 392H161V408H89V392Z" fill="#56CCF2"/>
<path d="M9 112H89C93.418 112 97 108.418 97 104V40C97 35.582 93.418 32 89 32H9C4.58203 32 1 35.582 1 40V104C1 108.418 4.58203 112 9 112ZM17 48H81V96H17V48Z" fill="#56CCF2"/>
<path d="M33 64H65V80H33V64Z" fill="#56CCF2"/>
</g>
<defs>
<clipPath id="clip0">
<rect width="480" height="480" fill="white"/>
</clipPath>
</defs>
</svg>
