<svg width="508" height="508" viewBox="0 0 508 508" fill="none" xmlns="http://www.w3.org/2000/svg">
<path d="M417.9 0V16.4H471.8L262.2 226L180.3 144.1L10.6 313.8L22.2 325.3L180.3 167.3L262.2 249.2L483.4 28V81.9H499.8V0H417.9Z" fill="#56CCF2"/>
<path d="M491.6 491.6V114.7H409.7V491.6H393.3V213H311.4V491.6H295V295H213V491.6H196.6V262.2H114.7V491.6H98.3V344.1H16.4V491.6H0V508H508V491.6H491.6ZM82 491.6H32.8V360.5H82V491.6ZM180.3 491.6H131.1V278.6H180.3V491.6ZM278.6 491.7H229.4V491.6V311.4H278.6V491.7ZM376.9 491.6H327.7V229.4H376.9V491.6ZM475.3 491.6H426.1V131.1H475.3V491.6Z" fill="#56CCF2"/>
</svg>
